<svg width="24" height="24" viewBox="0 0 24 24" fill="none" xmlns="http://www.w3.org/2000/svg">
<g clip-path="url(#clip0_8_31)">
<path d="M23.892 19.1291L23.7726 18.7692C23.4896 17.9283 22.5623 17.0512 21.7103 16.8202L18.5573 15.9588C17.7022 15.7262 16.4825 16.039 15.8569 16.6645L14.7157 17.8057C10.5685 16.6851 7.31641 13.4329 6.19728 9.28647L7.33849 8.14526C7.9641 7.51965 8.27685 6.30153 8.04422 5.44647L7.18443 2.29182C6.9518 1.43832 6.07315 0.510971 5.23382 0.231163L4.87389 0.110146C4.03296 -0.169662 2.83366 0.113314 2.2081 0.738871L0.501086 2.44744C0.19613 2.75079 0.00122486 3.61843 0.00122486 3.6216C-0.0584788 9.04121 2.06661 14.2628 5.90022 18.0964C9.72443 21.9206 14.9264 24.0426 20.3303 23.997C20.3585 23.997 21.2513 23.8052 21.5563 23.5019L23.2633 21.7948C23.8888 21.1693 24.1718 19.9701 23.892 19.1291Z" fill="black"/>
</g>
<defs>
<clipPath id="clip0_8_31">
<rect width="24" height="24" fill="white"/>
</clipPath>
</defs>
</svg>
