<svg width="90" height="90" viewBox="0 0 90 90" fill="none" xmlns="http://www.w3.org/2000/svg">
<ellipse cx="45" cy="45.2465" rx="45" ry="44.6066" fill="black" fill-opacity="0.6"/>
<g clip-path="url(#clip0_15_6)">
<path d="M56.5202 39.18C56.5202 29.7208 48.5414 22.051 38.7003 22.051C28.8595 22.051 20.8803 29.7208 20.8803 39.18C20.8803 48.6392 28.8595 56.3086 38.7003 56.3086C48.5414 56.3086 56.5202 48.6392 56.5202 39.18ZM38.7003 52.0262C31.3304 52.0262 25.3354 46.2642 25.3354 39.1801C25.3354 32.096 31.3304 26.3335 38.7003 26.3335C46.0701 26.3335 52.0655 32.096 52.0655 39.1801C52.0655 46.2642 46.0701 52.0262 38.7003 52.0262Z" fill="white" fill-opacity="0.5"/>
<path d="M67.0943 60.4188L56.1926 49.939C54.5682 52.3673 52.4185 54.4326 49.8922 55.994L60.7949 66.4739C62.5354 68.1466 65.3574 68.1466 67.0943 66.4739C68.8349 64.804 68.8349 62.0914 67.0943 60.4188Z" fill="white" fill-opacity="0.5"/>
</g>
<defs>
<clipPath id="clip0_15_6">
<rect x="20.88" y="22.051" width="47.52" height="45.6772" fill="white"/>
</clipPath>
</defs>
</svg>
