<svg width="40" height="40" viewBox="0 0 40 40" fill="none" xmlns="http://www.w3.org/2000/svg">
<path d="M17.4051 2.93566C18.1535 0.632385 21.412 0.632385 22.1604 2.93566L24.6955 10.7381C25.1641 12.1802 26.5079 13.1565 28.0242 13.1565H36.2282C38.65 13.1565 39.6569 16.2556 37.6977 17.6791L31.0605 22.5013C29.8338 23.3925 29.3205 24.9723 29.7891 26.4144L32.3242 34.2168C33.0726 36.5201 30.4364 38.4354 28.4771 37.0119L21.84 32.1897C20.6133 31.2985 18.9522 31.2985 17.7255 32.1897L11.0883 37.0119C9.12903 38.4354 6.49283 36.5201 7.24121 34.2168L9.77638 26.4144C10.2449 24.9723 9.73163 23.3925 8.50493 22.5013L1.86778 17.6791C-0.091507 16.2556 0.915432 13.1565 3.33724 13.1565H11.5412C13.0575 13.1565 14.4013 12.1802 14.8699 10.7381L17.4051 2.93566Z" stroke="black"/>
</svg>
