<svg width="210" height="178" viewBox="0 0 210 178" fill="none" xmlns="http://www.w3.org/2000/svg">
<rect width="210" height="178" fill="black" fill-opacity="0.6"/>
<path d="M40.625 59.875L41.25 57.1875C45.7917 56.8125 51.1458 55.8958 57.3125 54.4375C55.5208 59.0625 53.9375 64.3125 52.5625 70.1875L48.4375 87.625C45.4792 100.208 42.1458 109.708 38.4375 116.125C42.0208 116.833 45.1875 117.188 47.9375 117.188C55.2292 117.188 61.5833 115.667 67 112.625C72.4167 109.542 76.7083 105.062 79.875 99.1875C83.0833 93.3125 84.6875 86.8333 84.6875 79.75C84.6875 70.4583 81.9792 63 76.5625 57.375C71.1458 51.7083 64.0625 48.875 55.3125 48.875C47.9375 48.875 40.9792 50.625 34.4375 54.125C27.8958 57.625 22.7083 62.2708 18.875 68.0625C15.0833 73.8125 13.1875 79.4167 13.1875 84.875C13.1875 90.2083 15.5208 94.125 20.1875 96.625C21.5208 97.375 22.375 98.0208 22.75 98.5625C23.1667 99.1042 23.375 99.7708 23.375 100.562C23.375 101.562 22.9792 102.458 22.1875 103.25C21.4375 104 20.5625 104.375 19.5625 104.375C17.3542 104.375 15.2083 102.917 13.125 100C10.2917 95.9167 8.875 91.7292 8.875 87.4375C8.875 80.2708 11 73.3542 15.25 66.6875C19.5417 59.9792 25.5 54.6458 33.125 50.6875C40.75 46.7292 49.2292 44.75 58.5625 44.75C70.0625 44.75 79.2083 47.8333 86 54C92.8333 60.125 96.25 67.8333 96.25 77.125C96.25 85.75 93.875 93.6875 89.125 100.938C84.375 108.146 78.625 113.292 71.875 116.375C65.1667 119.417 58.4583 120.938 51.75 120.938C49.5833 120.938 45.8333 120.729 40.5 120.312C36 119.979 31.7292 119.812 27.6875 119.812C25.8125 119.812 22.9583 119.875 19.125 120L20.5625 116.938C24.3958 116.729 26.7708 116.396 27.6875 115.938C28.6458 115.479 29.4583 114.708 30.125 113.625C31.3333 111.708 32.9792 107.542 35.0625 101.125L39.375 84.8125L44.375 64.4375C44.625 63.4375 44.75 62.5833 44.75 61.875C44.75 61.2083 44.5417 60.6875 44.125 60.3125C43.7083 59.8958 43.125 59.6875 42.375 59.6875C42.0833 59.6875 41.5 59.75 40.625 59.875ZM148.625 122.625L143.625 55.375C142.542 66.7083 140.542 77.2917 137.625 87.125C134.708 96.9167 131.396 104.5 127.688 109.875C123.979 115.208 120.188 118.958 116.312 121.125C112.438 123.292 108.604 124.375 104.812 124.375C102.521 124.375 100.75 123.896 99.5 122.938C98.2917 122.021 97.6875 120.896 97.6875 119.562C97.6875 118.438 98.125 117.458 99 116.625C99.9167 115.792 101.062 115.375 102.438 115.375C103.438 115.375 104.875 115.604 106.75 116.062C108.458 116.521 109.875 116.75 111 116.75C112.958 116.75 115 116.021 117.125 114.562C120.333 112.396 123.5 108.521 126.625 102.938C129.792 97.3125 132.604 89.5 135.062 79.5C137.562 69.4583 139.125 59.6667 139.75 50.125C130.292 50.125 122.604 52.4792 116.688 57.1875C111.979 60.9375 109.625 65.125 109.625 69.75C109.625 71.7917 110.75 74.25 113 77.125C114.208 78.6667 114.812 79.9167 114.812 80.875C114.812 81.9583 114.458 82.8542 113.75 83.5625C113.083 84.2708 112.271 84.625 111.312 84.625C109.688 84.625 108.25 83.7083 107 81.875C105.292 79.4167 104.438 76.5 104.438 73.125C104.438 68.375 106.021 63.8333 109.188 59.5C112.396 55.125 116.812 51.8125 122.438 49.5625C128.104 47.2708 134.729 46.1042 142.312 46.0625C146.396 46.0625 149.667 45.6875 152.125 44.9375C152 48.6875 151.938 50.7083 151.938 51C151.938 51.375 152 52.2292 152.125 53.5625L155.812 101.062C165.854 83.5208 175.667 69.0833 185.25 57.75C192.042 49.7083 197.958 44.2708 203 41.4375C200.125 49.3542 197.042 59.7917 193.75 72.75L186.125 102.75C185.708 104.417 185.146 106.854 184.438 110.062L182.938 116.75C186.104 117.5 189 117.875 191.625 117.875C193.75 117.875 196.021 117.625 198.438 117.125L197.625 120.75C195.5 121.125 193.854 121.312 192.688 121.312C190.979 121.312 188.521 121.125 185.312 120.75C182.688 120.417 180.354 120.25 178.312 120.25C176.146 120.25 173.688 120.667 170.938 121.5C173.229 115.5 175.625 107.438 178.125 97.3125L182.938 78.1875C184.979 69.9375 186.75 64.2708 188.25 61.1875C184.917 64.9792 179.771 71.9375 172.812 82.0625C167.229 90.2292 160.979 100.562 154.062 113.062L148.625 122.625Z" fill="#E4002B"/>
</svg>
